# xmcd
#
# Track frame offsets: 
#        150
#        20740
#        58480
#        85124
#        114641
#        134998
#        163466
#
# Disc length: 2331 seconds
#
# Revision: 1
# Processed by: cddbd v1.5.2PL0 Copyright (c) Steve Scherf et al.
# Submitted via: ExactAudioCopy v0.95b4
#
DISCID=6e091907
DTITLE=Earl Hines - In Paris [Bonus Track]
DYEAR=2001
DGENRE=Jazz
TTITLE0=No greater love
TTITLE1=Foggy day
TTITLE2=If it's true
TTITLE3=Them there eyes
TTITLE4=Snugly but ugly
TTITLE5=You're driving me crazy
TTITLE6=Almost like being in love
EXTD=YEAR: 1970
EXTT0=
EXTT1=
EXTT2=
EXTT3=
EXTT4=
EXTT5=
EXTT6=
PLAYORDER=
